<svg xmlns="http://www.w3.org/2000/svg" width="30" height="21.992" viewBox="0 0 30 21.992">
  <path id="Forma_1_copy_3" data-name="Forma 1 copy 3" d="M1339.1,101.309a12.078,12.078,0,0,1-4.549.863,11.338,11.338,0,0,1-6.6-1.992,16.512,16.512,0,0,0,2.416-.273,10.64,10.64,0,0,0,4.188.825,9.868,9.868,0,0,0,5.856-1.778,4.371,4.371,0,0,0,0-7.573,7.99,7.99,0,0,0-.8-.518,6.9,6.9,0,0,0-.276-1.738c2.8,1.217,4.673,3.467,4.673,6.043a6,6,0,0,1-2.157,4.454l.695,3.372Zm-22.286-5.378a7.819,7.819,0,0,1-2.812-5.8c0-5.038,5.513-9.123,12.314-9.123,5.9,0,10.832,3.075,12.034,7.181a6.935,6.935,0,0,1,.277,1.737c0,.068,0,.137,0,.205,0,4.254-3.929,7.828-9.246,8.838a16.244,16.244,0,0,1-2.414.273c-.216.009-.435.013-.653.013a15.742,15.742,0,0,1-5.925-1.124l-4.483,2.2Zm13.518-6.021a1.794,1.794,0,1,0,1.792-1.722A1.758,1.758,0,0,0,1330.33,89.909Zm-5.808,0a1.793,1.793,0,1,0,1.792-1.722A1.757,1.757,0,0,0,1324.522,89.909Zm-5.808,0a1.793,1.793,0,1,0,1.792-1.722A1.757,1.757,0,0,0,1318.714,89.909Z" transform="translate(-1314 -81.004)" fill="#fff"/>
</svg>
